<svg width="120" height="48" viewBox="0 0 120 48" fill="none" xmlns="http://www.w3.org/2000/svg">
<g clip-path="url(#clip0_142217_176)">
<path d="M0 27.5563H9.13267L14.2076 8.44963H5.07371L0 27.5563ZM5.57689 6.17076H14.7478L16.255 0.454151H7.08765L5.57689 6.17076ZM12.6849 32.9327H21.8187L27.3992 12.29H34.249L35.259 8.44963H28.5406L28.7952 7.58567C29.1753 5.95726 29.9367 4.12892 33.361 4.12892C35.3928 4.12892 37.2944 4.22482 39.196 4.89699L40.212 0.864872C38.0927 0.298887 35.8628 0.00652656 33.6155 7.62939e-06C26.2578 7.62939e-06 21.1853 3.26496 19.2813 8.44963H16.1104L15.0956 12.29H18.2665L12.6849 32.9327Z" fill="white"/>
<path d="M41.6068 27.9407C52.3888 27.9407 59.8733 20.5469 59.8733 14.4982C59.8733 9.98575 54.4183 8.06514 49.0912 8.06514C37.2908 8.06514 30.8247 16.0389 30.8247 21.5076C30.8247 26.0201 36.4064 27.9407 41.6068 27.9407ZM70.5311 27.9407C81.3131 27.9407 88.7976 20.5469 88.7976 14.4982C88.7976 9.98575 83.2159 8.06514 77.8876 8.06514C66.0908 8.06514 59.6223 16.0344 59.6223 21.5076C59.6223 26.0201 65.3307 27.9407 70.5311 27.9407ZM103.639 27.5563H112.645L120 0.388103H110.867L108.71 8.45324L104.904 8.16555C96.0251 8.16555 87.9072 16.8061 87.9072 22.9515C87.9072 25.4475 90.0586 27.9444 93.7422 27.9444C98.9426 27.9444 102.622 26.0237 104.141 24.1031H104.647L103.639 27.5563ZM75.4757 41.8627C68.3867 46.3085 59.2815 48.4794 50.106 47.9113C38.0546 47.3351 29.4287 40.3257 27.9072 32.9327H28.4139C31.2048 37.5465 37.9279 41.8627 46.1737 42.534C54.5402 43.302 64.5669 40.4225 70.0207 36.4854L63.9323 32.9327H82.3255L78.2617 47.7196L75.5976 41.9586L75.4757 41.8627Z" fill="white"/>
</g>
<defs>
<clipPath id="clip0_142217_176">
<rect width="120" height="48" fill="white"/>
</clipPath>
</defs>
</svg>
